<svg width="508.07" height="600" xmlns="http://www.w3.org/2000/svg" xmlns:xlink="http://www.w3.org/1999/xlink" data-name="Layer 1">
 <defs>
  <linearGradient y2="1.92293" x2="0.355" y1="-3.49884" x1="0.9074" id="linear-gradient">
   <stop stop-color="#00ffa3" offset="0"/>
   <stop stop-color="#dc1fff" offset="1"/>
  </linearGradient>
  <linearGradient xlink:href="#linear-gradient" y2="678.57" x2="59.71" y1="141.1" x1="340.31" id="linear-gradient-2"/>
  <linearGradient xlink:href="#linear-gradient" y2="710.39" x2="120.66" y1="172.92" x1="401.26" id="linear-gradient-3"/>
  <filter id="svg_5_blur">
   <feGaussianBlur stdDeviation="NaN" in="SourceGraphic"/>
  </filter>
 </defs>
 <g>
  <title>Layer 1</title>
  <path id="svg_1" fill="url(#linear-gradient)" d="m82.55,303.89a16.63,16.63 0 0 1 11.75,-4.89l405.45,0a8.3,8.3 0 0 1 5.87,14.18l-80.09,80.09a16.61,16.61 0 0 1 -11.75,4.86l-405.45,0a8.31,8.31 0 0 1 -5.88,-14.13l80.1,-80.11z" class="cls-1"/>
  <path id="svg_2" fill="url(#linear-gradient-2)" d="m82.55,4.85a17.08,17.08 0 0 1 11.75,-4.85l405.45,0a8.3,8.3 0 0 1 5.87,14.18l-80.09,80.09a16.61,16.61 0 0 1 -11.75,4.86l-405.45,0a8.31,8.31 0 0 1 -5.88,-14.13l80.1,-80.15z" class="cls-2"/>
  <path id="svg_3" fill="url(#linear-gradient-3)" d="m425.53,153.42a16.61,16.61 0 0 0 -11.75,-4.86l-405.45,0a8.31,8.31 0 0 0 -5.88,14.18l80.1,80.09a16.6,16.6 0 0 0 11.75,4.86l405.45,0a8.3,8.3 0 0 0 5.87,-14.18l-80.09,-80.09z" class="cls-3"/>
  <text transform="matrix(1 0 0 1 0 0)" font-style="normal" filter="url(#svg_5_blur)" font-weight="normal" xml:space="preserve" text-anchor="start" font-family="sans-serif" font-size="40" id="svg_5" y="460.01338" x="37.32446" stroke-width="0" stroke="#000" fill="#ffffff">Donate to me if you can.</text>
  <text font-style="normal" filter="url(#svg_5_blur)" font-weight="normal" xml:space="preserve" text-anchor="start" font-family="sans-serif" font-size="40" id="svg_6" y="518.47595" x="39.5721" stroke-width="0" stroke="#000" fill="#ffffff">It will greatly benefit me.</text>
  <text stroke="#000" font-style="normal" filter="url(#svg_5_blur)" font-weight="normal" xml:space="preserve" text-anchor="start" font-family="sans-serif" font-size="25" id="svg_7" y="595.38454" x="0" stroke-width="0" fill="#ffffff">(Anything is welcome, of course.)</text>
 </g>
</svg>