<svg width="680" height="680" xmlns="http://www.w3.org/2000/svg" xml:space="preserve" enable-background="new 0 0 680 680" version="1.1">

 <g>
  <title>Layer 1</title>
  <path id="svg_2" d="m591.61014,494.77835c-0.05884,27.2366 -0.13111,54.47317 -0.17157,81.70975c-0.02442,16.44421 0.00049,32.88854 -0.01557,50.1416c-0.09277,1.51739 -0.16687,2.22607 -0.62622,2.97827c-2.64654,0.35559 -4.90783,0.6676 -7.53454,0.77612c-1.36243,-0.2486 -2.35932,-0.33319 -3.35626,-0.33319c-74.63205,0.00067 -149.2641,-0.00256 -223.89615,0.03522c-5.98972,0.00305 -11.97931,0.29248 -18.39176,0.44714c-4.78204,0.2547 -9.14132,0.51105 -13.70251,0.78015c-0.47156,0.03058 -0.74131,0.04535 -1.38452,-0.20483c-4.29334,-0.52924 -8.21338,-0.79663 -12.4198,-1.35755c-11.37531,-1.28778 -22.46425,-2.28204 -33.81548,-3.53186c-3.80371,-1.16565 -7.34479,-2.07696 -10.8866,-2.98547c-6.99649,-1.79462 -14.09495,-3.26788 -20.96792,-5.45117c-12.50101,-3.97101 -25.40685,-7.23633 -37.15991,-12.85437c-16.0427,-7.66864 -31.29496,-16.89978 -44.89715,-28.80457c-13.99987,-12.25293 -26.03385,-26.07416 -35.67239,-41.7821c-13.99717,-22.81137 -24.07672,-47.38504 -28.70772,-73.8721c-3.00866,-17.20795 -5.2493,-34.55097 -7.77287,-51.84238c-0.63662,-4.36209 -1.03873,-8.75839 -1.58552,-13.3942c-0.09478,-0.59497 -0.15264,-0.93475 -0.2305,-1.75558c-0.01688,-34.13702 -0.06409,-67.79312 0.04042,-101.44873c0.01681,-5.41367 0.51778,-10.84711 1.12923,-16.23346c1.50427,-13.25134 2.85834,-26.53477 4.92768,-39.70238c1.81537,-11.55156 3.72693,-23.19865 7.04123,-34.37497c3.83547,-12.9338 8.27536,-25.88263 14.2488,-37.93478c6.26025,-12.63083 13.8507,-24.80959 22.34481,-36.06521c7.81857,-10.3605 17.61005,-19.23213 26.8612,-28.85108c11.0413,-7.12678 21.26605,-15.10985 32.59783,-20.94198c12.36242,-6.36257 25.52569,-11.41893 38.76273,-15.75318c10.5742,-3.46234 21.8031,-4.89956 32.69588,-7.43147c2.95926,-0.68784 5.75368,-2.08486 9.05829,-3.23553c7.96507,-0.97996 15.49559,-1.8808 23.51512,-2.81461c94.89151,-0.02747 189.294,-0.02362 283.69653,-0.00516c1.99182,0.00039 3.98364,0.16943 5.97546,0.2598c0,0 0.15882,-0.1824 0.07929,0.3588c-0.05426,44.42802 -0.02594,88.31486 -0.0213,132.2017c0.00012,1.13459 0.09149,2.51966 -0.49127,3.33822c-0.67548,0.94873 -2.05011,1.39968 -3.55249,1.97213c-3.38355,0.23378 -6.33924,0.8693 -9.28742,0.83621c-11.43719,-0.12833 -22.87161,-0.6767 -34.30768,-0.69533c-49.97195,-0.08141 -99.9443,-0.11267 -149.91613,0.00426c-24.43973,0.05717 -48.87922,0.43589 -73.31635,0.82528c-1.72611,0.02752 -3.43164,1.34763 -5.45383,2.06217c-1.04715,0.31906 -1.7872,0.64262 -2.83877,0.90324c-8.45014,-0.91775 -16.21038,0.57971 -24.09793,3.76415c-2.5441,0.80632 -4.68759,1.5869 -6.85746,2.28555c-8.23951,2.65288 -15.53704,6.85654 -21.64991,13.03473c-0.01078,-0.01375 -0.04262,-0.01952 -0.37307,0.05642c-3.52693,3.60177 -6.7234,7.12758 -9.89198,10.7022c0.02789,0.04881 -0.07292,-0.00099 -0.41144,0.01738c-4.75302,5.83617 -9.51162,11.47165 -10.45045,19.13397c0.01211,0.00923 -0.00763,-0.01488 -0.35739,0.08298c-2.61037,7.97421 -4.99285,15.81837 -7.08676,23.73883c-1.29364,4.89334 0.60334,7.22485 5.70809,7.12503c10.6213,-0.20764 21.23841,-0.8689 31.85798,-0.88568c55.98321,-0.08838 111.9667,-0.03034 167.9501,-0.03742c3.99472,-0.00052 7.98947,-0.11547 12.44769,-0.13003c20.48865,0.0538 40.51383,0.06241 60.539,0.06625c10.15384,0.00195 20.30765,-0.00369 30.46149,-0.00763c11.45423,-0.00445 11.4541,-0.00528 10.5488,11.20767c-0.01337,0.16553 -0.00733,0.33277 -0.00714,0.49921c0.043,42.11115 0.08633,84.22232 -0.14215,126.67829c-2.25498,0.46493 -4.23819,0.68917 -6.22144,0.68984c-49.16168,0.01612 -98.32333,0.0051 -147.48501,0.00617c-53.16126,0.00116 -106.32256,0.03445 -159.48372,-0.03455c-4.0074,-0.00521 -7.50423,0.51157 -6.66553,5.44648c1.01608,5.97869 2.82526,11.82266 4.40071,18.00219c0.64195,1.69208 1.17447,3.10688 1.64856,4.72544c-0.0752,0.50396 0.02316,0.75998 0.33972,1.26077c0.40971,0.8157 0.71631,1.34235 1.11862,2.06387c0.09574,0.19492 0.38112,0.52225 0.42716,0.87921c0.58772,1.67343 1.12944,2.98984 1.70093,4.55903c0.38394,0.587 0.73811,0.92126 1.15292,1.27941c0.06067,0.0239 -0.06938,0.01221 -0.05191,0.33722c0.71106,1.38276 1.40466,2.44049 2.19293,3.83588c11.73814,21.05527 32.28488,29.04465 52.88727,36.43323c13.90445,4.98654 28.90353,3.84915 43.34674,3.95242c72.49057,0.51849 144.98682,0.25458 217.48102,0.21246c1.88775,-0.00109 3.77508,-0.60965 5.98181,-1.07187c0.43817,-0.33654 0.55719,-0.53616 1.11908,-0.72582c8.56964,-0.03071 16.69647,-0.07139 24.80609,0.1712c0.27594,0.51034 0.56915,0.73739 1.03516,1.19977c0.61096,1.31451 1.04901,2.39373 1.48712,3.47293m-288.17792,11.37857c-0.3692,0.05291 -0.73843,0.10586 -1.65736,-0.3071c-2.43566,-0.6785 -4.87131,-1.35703 -8.13549,-2.16974c-2.70909,-0.62811 -5.41816,-1.25626 -8.80793,-1.91766c-0.4527,-0.02973 -0.9054,-0.05945 -1.39637,-0.79962c-1.37236,-1.05277 -2.6206,-2.35456 -4.14019,-3.11188c-4.67928,-2.33203 -9.7389,-4.00757 -14.15934,-6.73474c-25.52752,-15.74915 -40.53126,-38.98429 -47.59071,-67.77771c-1.2798,-5.21988 -2.9145,-10.35276 -4.23358,-16.37467c-0.54446,-4.974 -1.08891,-9.94796 -1.67452,-15.29782c2.31342,0 3.95568,-0.00012 5.59792,0c34.9549,0.00235 69.90979,0.01318 104.86469,-0.00595c3.48632,-0.00192 6.97256,-0.18637 11.37435,-0.13693c63.76221,0.02038 127.52445,0.04437 191.28666,0.0354c1.28363,-0.00018 2.5672,-0.38486 4.58431,-0.85538c0.12366,-0.43548 0.24729,-0.87094 0.49262,-1.6062c0,0 -0.2319,-0.22562 0.05991,-0.45395c0,0 0.34646,-0.13119 0.44656,0.43488c0.16461,0.09799 0.32925,0.19601 1.0874,0.97479c0.72309,-1.28787 2.04859,-2.56561 2.07044,-3.8653c0.13165,-7.81832 -0.03577,-15.64166 0.02618,-24.38864c-0.00958,-23.13727 -0.03149,-46.27453 -0.01257,-69.4118c0.00229,-2.79251 -0.32813,-5.11191 -4.19583,-4.88303c0,0 -0.28846,0.05289 -0.83506,-0.42364c-1.32153,0.2251 -2.64309,0.45016 -4.90322,0.59762c-100.61756,-0.00894 -201.23511,-0.01803 -301.85267,-0.02667c-9.84809,-0.00085 -9.9077,-0.00378 -9.24891,-9.59592c1.14322,-16.64575 6.81144,-32.04837 13.64485,-47.71011c6.5567,-13.31308 15.57547,-24.68945 26.62305,-34.58626c11.0522,-9.90089 24.24914,-16.00511 38.12533,-19.96565c10.8031,-3.08344 22.33432,-3.61577 34.31446,-5.10626c0.78854,-0.02822 1.57711,-0.05643 2.98995,-0.21242c0.7757,-0.31322 1.5514,-0.62643 3.06089,-0.77742c0.7481,-0.03412 1.49621,-0.06824 2.98108,0.00792c1.3956,-0.3983 2.79123,-0.7966 5.12664,-1.01892c73.07196,0.02243 146.14396,0.04747 219.21592,0.05879c3.32513,0.00052 6.65027,-0.1228 10.703,-0.06087c1.10199,-0.27707 2.20398,-0.55414 3.95123,-1.40483c0.11292,-0.48329 0.32489,-0.96661 0.32465,-1.44986c-0.0163,-30.65825 -0.03852,-61.31653 -0.11884,-91.97466c-0.00366,-1.39841 -0.54571,-2.79543 -0.94232,-4.69456c-0.21924,-0.25224 -0.43848,-0.50448 -1.03326,-1.49353c-1.71759,-0.31906 -3.43439,-0.91012 -5.15296,-0.91549c-19.07229,-0.05951 -38.14487,-0.0366 -57.21737,-0.02008c-64.78541,0.05612 -129.57087,0.08507 -194.35596,0.25696c-4.15882,0.01103 -8.31467,1.14597 -12.69415,1.82777c0,0 -0.22896,0.06076 -1.17069,-0.10031c-2.47963,0.05375 -5.02061,-0.22641 -7.42876,0.21624c-14.04582,2.58176 -28.15312,4.93681 -42.04838,8.18634c-7.47299,1.74761 -14.56415,5.12795 -22.54004,7.99258c-9.84848,4.47069 -20.03531,8.32853 -29.4749,13.53986c-19.55475,10.79561 -35.33259,26.20499 -48.86547,43.73374c-10.18049,13.18648 -18.23214,27.7986 -24.0433,43.4808c-3.38093,9.12386 -6.31798,18.42011 -9.1481,27.732c-0.44774,1.47317 0.72969,3.44027 1.40043,5.63482c-0.06528,0.15963 -0.13055,0.31923 -0.9325,0.58196c-1.08544,1.68471 -2.81102,3.25236 -3.14424,5.07463c-1.36148,7.44534 -2.4684,14.94846 -3.35073,22.46764c-1.36289,11.61441 -3.37873,23.24905 -3.51093,34.89334c-0.44418,39.12213 -0.21162,78.25235 -0.1406,117.3793c0.00897,4.94073 0.30986,9.91968 0.97661,14.81262c1.50806,11.06693 2.93545,22.1702 5.13148,33.11099c2.29412,11.42957 4.7552,22.91452 8.38613,33.96695c6.09214,18.54425 14.0635,36.26819 26.0985,51.95697c9.4839,12.36316 19.34137,24.28107 32.41201,34.08014c2.61686,1.72138 5.23372,3.44275 8.1474,5.34528c0,0 0.3381,0.08118 0.57455,0.59106c0.2974,0.22052 0.59479,0.4411 1.24141,1.22309c4.55524,2.59985 9.13696,5.1546 13.66113,7.80755c18.66091,10.94245 38.72652,17.99408 59.89858,22.26673c19.2525,3.88525 38.63655,6.29919 59.17567,6.91711c3.33161,0.02734 6.66324,0.05469 10.58384,0.71338c0.99151,0.07855 1.983,0.22571 2.97451,0.22589c75.77314,0.01355 151.54627,0.01563 227.3194,0.01758c0.83258,0.00006 1.67224,0.05481 2.49652,-0.03131c5.54974,-0.58026 6.79041,-1.95844 6.78998,-7.49866c-0.00238,-29.80963 -0.08545,-59.61981 0.09527,-89.42828c0.0207,-3.414 -0.91565,-5.22064 -4.99462,-6.22126c-43.60669,-0.00738 -87.21354,0.06122 -130.81998,-0.04525c-37.73816,-0.09217 -75.47586,-0.38297 -114.00058,-0.75449c-5.4599,-1.68381 -10.90982,-2.69366 -16.81424,0.00528c-0.45517,-0.32593 -0.91034,-0.65189 -1.34329,-1.46384c0,0 -0.12235,-0.47043 -0.23316,-1.00573c-0.47741,0.05273 -0.9548,0.10546 -1.95239,-0.0636z" fill="#FEFDFD"/>
  <path id="svg_140" d="m525.23755,68.74907c0.31457,0.14873 0.53381,0.40097 0.80566,0.90394c0.05268,0.25075 -0.0263,0.32263 -0.27173,0.23858c-0.49743,-0.28466 -0.68756,-0.53272 -0.81585,-0.82821c0,0 0.18652,-0.21082 0.28192,-0.31431z" fill="#BC7C7C"/>
 </g>
</svg>